<svg xmlns="http://www.w3.org/2000/svg" width="24" height="24" viewBox="0 0 24 24">
  <path id="rocket-deploy" d="M8.566,17.842C7.621,20.3,4.888,21.854,2,22c.139-2.772,1.684-5.608,4.209-6.563l.51.521a6.591,6.591,0,0,0-2.144,3.461,6.578,6.578,0,0,0,3.483-2.1ZM7.43,6.5A8.652,8.652,0,0,0,1.664,9.114,9.2,9.2,0,0,0,0,11.372a4.348,4.348,0,0,1,5.147-.408A22.5,22.5,0,0,1,7.43,6.5Zm5.2,17.5a9.141,9.141,0,0,0,2.261-1.664,8.61,8.61,0,0,0,2.6-5.782,24.464,24.464,0,0,1-4.466,2.3,4.352,4.352,0,0,1-.4,5.15ZM23.946.044Q23.3,0,22.685,0C13.347,0,8.22,7.426,6.584,13.009l4.428,4.428C16.792,15.582,24,10.66,24,1.444V1.385C24,.948,23.981.5,23.946.044ZM18,8a2,2,0,1,1,2-2A2,2,0,0,1,18,8Z" fill="#686868"/>
</svg>
