<svg id="github-icon" xmlns="http://www.w3.org/2000/svg" width="25.764" height="25.128" viewBox="0 0 25.764 25.128">
  <path id="Path_24" data-name="Path 24" d="M12.882,0A12.883,12.883,0,0,0,8.809,25.106c.644.119.88-.279.88-.62,0-.307-.012-1.322-.017-2.4-3.584.779-4.34-1.52-4.34-1.52A3.411,3.411,0,0,0,3.9,18.683c-1.169-.8.088-.783.088-.783a2.708,2.708,0,0,1,1.975,1.328A2.742,2.742,0,0,0,9.713,20.3a2.744,2.744,0,0,1,.818-1.723c-2.861-.326-5.869-1.43-5.869-6.366A4.985,4.985,0,0,1,5.989,8.751a4.629,4.629,0,0,1,.125-3.409S7.2,5,9.658,6.663a12.219,12.219,0,0,1,6.451,0c2.459-1.667,3.539-1.32,3.539-1.32a4.623,4.623,0,0,1,.126,3.409A4.976,4.976,0,0,1,21.1,12.209c0,4.948-3.014,6.037-5.882,6.356a3.079,3.079,0,0,1,.874,2.386c0,1.724-.015,3.111-.015,3.535,0,.343.232.745.885.618A12.884,12.884,0,0,0,12.882,0ZM4.825,18.351c-.028.064-.129.083-.221.039s-.146-.129-.116-.193.129-.084.222-.04S4.857,18.286,4.825,18.351Zm.634.565c-.061.057-.182.03-.263-.059a.2.2,0,0,1-.038-.268c.063-.057.18-.03.264.059S5.523,18.858,5.458,18.916Zm.435.723c-.079.055-.208,0-.288-.111s-.079-.252,0-.307.207-.006.288.108S5.974,19.583,5.893,19.639Zm.735.838c-.071.078-.221.057-.331-.049s-.144-.251-.073-.329.223-.056.334.049S6.7,20.4,6.628,20.477Zm.95.283c-.031.1-.176.147-.322.1s-.241-.162-.212-.264.176-.149.323-.1S7.609,20.657,7.578,20.76Zm1.081.12c0,.106-.12.194-.273.2s-.279-.083-.28-.187.121-.195.275-.2S8.66,20.774,8.66,20.88Zm1.062-.041c.018.1-.088.21-.24.239s-.288-.037-.307-.139.09-.213.239-.24S9.7,20.734,9.722,20.839Z" fill="#686868"/>
</svg>
