<svg id="Capa_1" data-name="Capa 1" xmlns="http://www.w3.org/2000/svg" viewBox="0 0 24 24"><defs><style>.cls-1{fill:#66dbb1;}</style></defs><title>linkedin2</title><path class="cls-1" d="M-13.3-12.59h-14a5,5,0,0,0-5,5v14a5,5,0,0,0,5,5h14a5,5,0,0,0,5-5v-14A5,5,0,0,0-13.3-12.59Zm-11,19h-3v-11h3ZM-25.8-5.85a1.76,1.76,0,0,1-1.75-1.77A1.76,1.76,0,0,1-25.8-9.38,1.75,1.75,0,0,1-24-7.62,1.76,1.76,0,0,1-25.8-5.85ZM-12.3,6.41h-3V.81c0-3.37-4-3.11-4,0v5.6h-3v-11h3v1.77c1.4-2.59,7-2.78,7,2.48Z" transform="translate(32.3 12.59)"/></svg>