<svg id="Capa_1" data-name="Capa 1" xmlns="http://www.w3.org/2000/svg" viewBox="0 0 240 240"><defs><style>.cls-1{fill:#53d2bb;}</style></defs><title>githublogo</title><path class="cls-1" d="M-81,116.74v120H159v-240H-81Zm141.9-92c42.7,10.9,71,47,70.9,90.3,0,13.4-1.6,22.7-5.9,33.9-8.8,22.8-25,40.2-47.2,50.9-8.5,4-13,5.1-14.7,3.3-.5-.5-1-9-1.2-18.9-.3-17.4-.4-18.2-3-22.8l-2.7-4.7h3.3c4.7,0,13.3-2.7,19.3-6.1,13.7-7.8,20.2-22.4,19.1-42.8-.5-8.7-2.2-13.5-7-20.3-1.1-1.7-1.7-3.6-1.3-4.7,1.2-4,.8-15.6-.8-19.4-1.3-2.9-2.1-3.7-4.2-3.7-3.6,0-12.7,3.4-18.3,6.7-4.6,2.8-4.8,2.9-10.2,1.6-5.2-1.2-26.9-1.8-31.7-.9-9.4,1.9-10.8,1.8-15.9-1.1-7.1-4.2-13.6-6.5-17.5-6.1-2.9.3-3.5.8-4.5,4.3-1.5,4.9-1.7,13.9-.5,18.2.7,2.5.6,3.5-.9,4.8-1,.9-3.1,4.4-4.6,7.8-2.6,5.7-2.9,7.2-2.8,17.3,0,8.9.5,12.3,2.3,17.5,3.1,8.7,8,15.2,14.4,19.3,5.6,3.6,16.2,7.4,21.5,7.8,3.5.2,4,.9,1.8,2.7-.8.7-2,3.1-2.7,5.5-1,3.6-1.8,4.6-4.6,5.4-4.4,1.3-11.2.8-15.1-1.2-1.7-.9-5-4.1-7.1-7-5.5-7.4-9.4-10-15-10-6.1-.1-6.1,2-.2,6.5a26.59,26.59,0,0,1,7.5,9.6c6.1,12.1,12,15.7,25.4,15.6l8.2-.2v8.9c0,10.2-.9,11.6-6.8,10.7C-.72,201.94-21,189-30,179c-6.4-7.1-14.7-20.3-17.6-28-5.8-15.3-6.9-21.4-6.8-37.3.3-44.7,33.1-83,77.4-90.5C33.38,21.54,51,22.14,60.88,24.74Z" transform="translate(81.02 3.26)"/></svg>