<svg id="Capa_1" data-name="Capa 1" xmlns="http://www.w3.org/2000/svg" viewBox="0 0 400 400"><defs><style>.cls-1{fill:#53d2bb;}</style></defs><title>platzi</title><path class="cls-1" d="M436.9,371.72v-400h400v400ZM676.07,235.46c3.9-3.2,7.48-5.7,10.54-8.73,18.66-18.53,37.38-37,55.75-55.85a44.72,44.72,0,0,0-.42-62.67q-32.43-32.58-65-65c-17.36-17.28-45.17-18.12-62.65-1Q564.17,91.38,515,141.49c-16.37,16.64-15.76,45.16.64,61.62q48.82,49,97.89,97.8a44.71,44.71,0,0,0,60.84,2.22c5.68-4.86,10.71-10.47,16.13-15.65,6.35-6.06,12.79-12,20.12-18.89Z" transform="translate(-436.9 28.28)"/><path class="cls-1" d="M645,267.53,549.39,172,645,76.62l63.83,63.73L645,203.6l32.72,31.73C666.22,246.67,655.58,257.14,645,267.53Z" transform="translate(-436.9 28.28)"/></svg>