<?xml version="1.0" encoding="utf-8"?>
<!-- Generator: Adobe Illustrator 24.0.1, SVG Export Plug-In . SVG Version: 6.00 Build 0)  -->
<svg version="1.1" id="Layer_1" xmlns="http://www.w3.org/2000/svg" xmlns:xlink="http://www.w3.org/1999/xlink" x="0px" y="0px"
	 viewBox="0 0 300 300" style="enable-background:new 0 0 300 300;" xml:space="preserve">
<style type="text/css">
	.st0{fill:#53D2BB;}
</style>
<title>twitter</title>
<path class="st0" d="M0,0v300h300V0L0,0z M229.5,109.2c0.1,1.8,0.1,3.5,0.1,5.3c0,54.2-41.3,116.8-116.7,116.8
	c-22.3,0-44.1-6.4-62.9-18.4c3.2,0.4,6.5,0.6,9.8,0.6c18.5,0,36.5-6.1,51-17.6c-17.6-0.3-33-11.8-38.3-28.5c2.5,0.5,5.1,0.7,7.7,0.7
	c3.7,0,7.3-0.5,10.8-1.4c-19.1-3.9-32.9-20.7-32.9-40.2c0-0.2,0-0.3,0-0.5c5.7,3.2,12.1,4.9,18.6,5.1c-11.4-7.6-18.3-20.4-18.3-34.2
	c0-7.2,1.9-14.4,5.6-20.6c20.8,25.6,51.6,41.2,84.5,42.9c-0.7-3.1-1.1-6.2-1.1-9.3c0-22.6,18.4-41,41-41c11.4,0,22.2,4.7,30,13
	c9.2-1.8,18-5.2,26.1-10c-3.1,9.5-9.4,17.6-18,22.7c8.1-1,16.1-3.1,23.6-6.5C244.5,96.2,237.6,103.4,229.5,109.2z"/>
</svg>
